 <svg
          xmlns="http://www.w3.org/2000/svg"
          width="30"
          height="14"
          viewBox="0 0 30 14"
        >
          <g transform="translate(5 -2)">
            <path
              fill="#272a37"
              d="M19.719,10.973A3.112,3.112,0,1,1,22.831,14,3.067,3.067,0,0,1,19.719,10.973Zm2.171,0a.94.94,0,1,0,.941-.913A.929.929,0,0,0,21.891,10.973Zm-17.628,0A3.068,3.068,0,0,1,7.375,7.949a3.027,3.027,0,1,1,0,6.051A3.069,3.069,0,0,1,4.263,10.973Zm2.172,0a.939.939,0,1,0,.941-.913A.93.93,0,0,0,6.435,10.973Zm20.327.376a3.377,3.377,0,0,0,.039-.366,3.846,3.846,0,0,0-7.688,0,3.287,3.287,0,0,0,.039.366h-8.1a3.377,3.377,0,0,0,.038-.366A3.784,3.784,0,0,0,7.243,7.261,3.785,3.785,0,0,0,3.4,10.982a3.564,3.564,0,0,0,.038.366H.509A.5.5,0,0,1,0,10.855V8.942a.394.394,0,0,1,.4-.387V7.111A1.46,1.46,0,0,1,1.532,5.705L6.716,4.453l3.852-3A6.949,6.949,0,0,1,14.831,0l6.907,0A1.807,1.807,0,0,1,22.93.444l3.4,2.965,1.093-.058a1.484,1.484,0,0,1,1.567,1.27l.5,3.937A.5.5,0,0,1,30,9.051v1.8a.5.5,0,0,1-.51.494ZM11.448,2.755,9.6,4.191l9.637-.472V1.549H14.984A5.752,5.752,0,0,0,11.448,2.755Zm9.394.883,3.182-.156L22.057,1.769a.888.888,0,0,0-.588-.219h-.626Z"
              transform="translate(-5 2)"
            ></path>
          </g>
        </svg>