<svg xmlns="http://www.w3.org/2000/svg" viewBox="0 0 1929.931 297.295"><g fill="#fff"><path d="M289.931 54.95c-5.379-19.724-18.621-26.069-28.828-26.069s-19.862 7.31-26.069 20.828c-6.207 13.517-54.621 122.155-54.621 122.155S132 63.226 125.793 49.709c-6.207-13.517-15.862-20.828-26.069-20.828-10.207 0-23.448 6.345-28.828 26.069-5.379 19.724-45.103 211.724-45.103 211.724H84l21.517-123.448s35.979 81.791 44.824 98.962c10.624 20.625 30.072 18.831 30.072 18.831s19.448 1.793 30.072-18.831c8.845-17.171 44.824-98.962 44.824-98.962l21.517 123.448h58.207c.001 0-39.723-192-45.102-211.724zm224.103-39.544c-73.587 0-133.241 59.654-133.241 133.241s59.654 133.241 133.241 133.241 133.241-59.654 133.241-133.241S587.622 15.406 514.034 15.406zm0 261.207c-70.673 0-127.966-57.292-127.966-127.965S443.361 20.682 514.034 20.682 642 77.974 642 148.647s-57.292 127.966-127.966 127.966z"/><path d="M514.034 26.889c-67.245 0-121.759 54.513-121.759 121.759s54.513 121.759 121.759 121.759 121.759-54.513 121.759-121.759S581.28 26.889 514.034 26.889zm56.863 55.334c13.706-7.913 31.231-3.217 39.144 10.489s3.217 31.231-10.489 39.144-31.231 3.217-39.144-10.489-3.216-31.231 10.489-39.144zM457.172 214.059c-13.706 7.913-31.231 3.217-39.144-10.489-7.913-13.706-3.217-31.231 10.488-39.144 13.706-7.913 31.231-3.217 39.144 10.489s3.217 31.231-10.488 39.144zm10.488-92.692c-7.913 13.706-25.438 18.401-39.144 10.489-13.706-7.913-18.401-25.438-10.488-39.144s25.438-18.401 39.144-10.489 18.401 25.438 10.488 39.144zM514.034 259c-15.826 0-28.655-12.829-28.655-28.655s12.829-28.655 28.655-28.655 28.655 12.829 28.655 28.655C542.69 246.17 529.86 259 514.034 259zm-15.896-110.353c0-8.779 7.117-15.897 15.897-15.897s15.897 7.117 15.897 15.897-7.117 15.897-15.897 15.897-15.897-7.117-15.897-15.897zm15.896-54.054c-15.826 0-28.655-12.829-28.655-28.655s12.829-28.655 28.655-28.655 28.655 12.829 28.655 28.655c.001 15.825-12.829 28.655-28.655 28.655zm96.007 108.977c-7.913 13.706-25.438 18.401-39.144 10.489-13.706-7.913-18.401-25.438-10.489-39.144s25.438-18.401 39.144-10.489 18.402 25.439 10.489 39.144zM899.103 30.812l-75.379 145.034-75.379-145.034h-65.172s100.376 191.776 112.138 213.517c13.655 25.241 28.414 25.241 28.414 25.241s14.759 0 28.414-25.241C863.9 222.588 964.276 30.812 964.276 30.812h-65.173zm118.552 0h52.138v235.034h-52.138zm279.449 55.172V30.812h-173.138v235.034h173.138v-55.172h-120.173V172.64h105.828v-51.069h-105.828V85.984zm607.034 0V30.812H1731v235.034h173.138v-55.172h-120.172V172.64h105.827v-51.069h-105.827V85.984zm-339.948 5.967h116.84v-61.14h-118.41c-59.31 0-96.69 53.38-96.69 117.52 0 64.9 43.29 117.52 96.69 117.52h118.41v-144.14h-104.27v51.24h52.21v33h-64.78c-25.9 0-46.9-25.52-46.9-57s21-57 46.9-57z"/><circle cx="1386" cy="239.053" r="29.379"/></g></svg>