<svg
          xmlns="http://www.w3.org/2000/svg"
          width="22"
          height="16"
          viewBox="0 0 22 16"
        >
          <path
            fill="#272a37"
            d="M15.554,3.334a3.362,3.362,0,0,0,.759,2.119l-.871,1.071a4.611,4.611,0,0,1-1.094-2.066,5.246,5.246,0,0,1-.124-1.123.656.656,0,0,0-.644-.666H7.5A3.875,3.875,0,0,0,3.867,0,3.941,3.941,0,0,0,0,4,3.94,3.94,0,0,0,3.867,8,3.94,3.94,0,0,0,7.736,4H9.067a5.436,5.436,0,0,1-.88,2.96,4.081,4.081,0,0,0,3.03,2.323.647.647,0,0,1,.438.289l1.469,2.276a3.22,3.22,0,0,0,1.314,1.169c0-.005.009-.007.015-.013a3.1,3.1,0,0,0,1.059.315v1.289a4.349,4.349,0,0,1-.559.058h-.729a.667.667,0,0,0,0,1.333h.729a5.871,5.871,0,0,0,5.715-5.921,2.14,2.14,0,0,0-.579-1.526A1.811,1.811,0,0,0,18.78,8a5.057,5.057,0,0,1-1.088-.12,4.21,4.21,0,0,1-1.246-.521l.871-1.071a3.1,3.1,0,0,0,1.459.379A3.284,3.284,0,0,0,22,3.334a3.225,3.225,0,1,0-6.446,0Zm1.29,0a1.934,1.934,0,1,1,3.866,0,1.969,1.969,0,0,1-1.934,2,1.877,1.877,0,0,1-.63-.117l1.134-1.466a.682.682,0,0,0-.1-.938.631.631,0,0,0-.907.1L17.14,4.384A2.026,2.026,0,0,1,16.845,3.334ZM1.29,4A2.627,2.627,0,0,1,3.867,1.333,2.557,2.557,0,0,1,6.089,2.667H4.513a1.97,1.97,0,0,0-1.934,2,.645.645,0,1,0,1.289,0A.657.657,0,0,1,4.513,4H6.446A2.627,2.627,0,0,1,3.867,6.667,2.627,2.627,0,0,1,1.29,4ZM3.223,9.335A3.283,3.283,0,0,0,0,12.666a.657.657,0,0,0,.647.668H3.475l4.136-2.542a9.742,9.742,0,0,1,1.7-.814,5.43,5.43,0,0,1-2.015-1.93c0-.011,0-.022-.01-.033A5.32,5.32,0,0,1,3.223,9.335Zm5.049,2.6-1.029.641A4.483,4.483,0,0,0,11,14.667a4.356,4.356,0,0,0,2.392-.739A4.615,4.615,0,0,1,12.05,12.59l-1.1-1.715A8.469,8.469,0,0,0,8.272,11.936Z"
            transform="translate(22 16) rotate(180)"
          ></path>
        </svg>