<svg width="16" height="16" viewBox="0 0 16 16" fill="none" xmlns="http://www.w3.org/2000/svg"><path fill-rule="evenodd" clip-rule="evenodd" d="M5.525 2c-.388 0-.703.35-.703.783 0 .433.315.783.703.783h1.808v1.707H5.686a.662.662 0 0 0-.465.19L4.004 6.665h-.667a.654.654 0 0 0-.658.65v1.23H1.5V7.134a.76.76 0 0 0-.75-.77.76.76 0 0 0-.75.77v4.95c0 .425.336.77.75.77a.76.76 0 0 0 .75-.77v-1.998H2.68v1.871c0 .36.294.65.658.65h.667l1.217 1.203c.124.121.29.19.465.19h5.17c.142 0 .28-.046.395-.13l1.88-1.393a.648.648 0 0 0 .263-.52v-1.871H14.5v1.998c0 .425.336.77.75.77a.76.76 0 0 0 .75-.77v-4.95a.76.76 0 0 0-.75-.77.76.76 0 0 0-.75.77v1.411h-1.106v-1.23a.646.646 0 0 0-.193-.46l-1.41-1.392a.662.662 0 0 0-.465-.19H8.74V3.566h1.807c.389 0 .704-.35.704-.783 0-.432-.315-.783-.704-.783H5.525zm-.783 5.775 1.217-1.202h5.094l1.025 1.011v4.049L10.637 12.7H5.959l-1.217-1.202a.662.662 0 0 0-.465-.19h-.282V7.964h.282a.662.662 0 0 0 .465-.19z" fill="#9CA2AA"></path></svg>