  <svg
          xmlns="http://www.w3.org/2000/svg"
          width="22"
          height="18"
          viewBox="0 0 22 18"
        >
          <g transform="translate(0)">
            <path
              fill="#272a37"
              d="M14.265,3.723a3.87,3.87,0,0,0,7.735,0,3.87,3.87,0,0,0-7.735,0Zm3.222,0a.645.645,0,1,1,.644.621A.633.633,0,0,1,17.488,3.723ZM0,4.964A5.065,5.065,0,0,0,5.157,9.931a5.064,5.064,0,0,0,5.155-4.966A5.062,5.062,0,0,0,5.157,0,5.064,5.064,0,0,0,0,4.964Zm3.222,0A1.9,1.9,0,0,1,5.157,3.1,1.9,1.9,0,0,1,7.091,4.964,1.9,1.9,0,0,1,5.157,6.826,1.9,1.9,0,0,1,3.222,4.964ZM11.6,3.1V4.964h1.537a4.911,4.911,0,0,1-.162-1.241,4.633,4.633,0,0,1,.04-.621ZM4.511,4.964a.645.645,0,1,0,.646-.621A.635.635,0,0,0,4.511,4.964Zm6.96,1.241a6.4,6.4,0,0,1-6.314,4.966,6.608,6.608,0,0,1-4.1-1.419l-.821.958a7.97,7.97,0,0,0,9.194.461h8.706A2.535,2.535,0,0,0,20.711,8.69V8.022a5.274,5.274,0,0,1-2.578.668,5.2,5.2,0,0,1-4.465-2.484Zm4.083,6.208v1.862a1.9,1.9,0,0,0,1.934,1.862V14.9a.634.634,0,0,1-.645-.621V12.413Zm-5.754,0a9.312,9.312,0,0,1-6.578,1.038v3.308H1.934V18H12.248V16.759H11.126l1.184-4.346Z"
              transform="translate(22 18) rotate(180)"
            ></path>
          </g>
        </svg>